<mxfile host="app.diagrams.net" modified="2021-11-22T12:13:30.497Z" agent="5.0 (Macintosh; Intel Mac OS X 10_15_7) AppleWebKit/605.1.15 (KHTML, like Gecko) Version/15.1 Safari/605.1.15" etag="cozj3cYE1Vqm0RFJKfCB" version="15.8.3" type="github">
  <diagram name="Page-1" id="e7e014a7-5840-1c2e-5031-d8a46d1fe8dd">
    <mxGraphModel dx="830" dy="694" grid="1" gridSize="10" guides="1" tooltips="1" connect="1" arrows="1" fold="1" page="1" pageScale="1" pageWidth="1169" pageHeight="826" background="none" math="0" shadow="0">
      <root>
        <mxCell id="0" />
        <mxCell id="1" parent="0" />
        <mxCell id="jkCZveZD26y1BfdMxYiz-46" value="Server" style="shape=umlActor;verticalLabelPosition=bottom;verticalAlign=top;html=1;" parent="1" vertex="1">
          <mxGeometry x="1050" y="118" width="30" height="60" as="geometry" />
        </mxCell>
        <mxCell id="jkCZveZD26y1BfdMxYiz-101" style="edgeStyle=orthogonalEdgeStyle;rounded=0;orthogonalLoop=1;jettySize=auto;html=1;exitX=1;exitY=0.3333333333333333;exitDx=0;exitDy=0;exitPerimeter=0;entryX=0;entryY=0.5;entryDx=0;entryDy=0;endArrow=none;endFill=0;" parent="1" source="jkCZveZD26y1BfdMxYiz-47" target="jkCZveZD26y1BfdMxYiz-100" edge="1">
          <mxGeometry relative="1" as="geometry">
            <Array as="points">
              <mxPoint x="70" y="133" />
            </Array>
          </mxGeometry>
        </mxCell>
        <mxCell id="jkCZveZD26y1BfdMxYiz-47" value="&lt;div&gt;Client&lt;/div&gt;&lt;div&gt;&lt;br&gt;&lt;/div&gt;" style="shape=umlActor;verticalLabelPosition=bottom;verticalAlign=top;html=1;" parent="1" vertex="1">
          <mxGeometry x="40" y="118" width="30" height="60" as="geometry" />
        </mxCell>
        <mxCell id="jkCZveZD26y1BfdMxYiz-57" style="edgeStyle=orthogonalEdgeStyle;rounded=0;orthogonalLoop=1;jettySize=auto;html=1;exitX=0.5;exitY=0;exitDx=0;exitDy=0;exitPerimeter=0;endArrow=none;endFill=0;" parent="1" source="jkCZveZD26y1BfdMxYiz-48" target="jkCZveZD26y1BfdMxYiz-47" edge="1">
          <mxGeometry relative="1" as="geometry" />
        </mxCell>
        <mxCell id="jkCZveZD26y1BfdMxYiz-58" style="edgeStyle=orthogonalEdgeStyle;rounded=1;orthogonalLoop=1;jettySize=auto;html=1;exitX=1;exitY=0.3333333333333333;exitDx=0;exitDy=0;exitPerimeter=0;entryX=0;entryY=0.5;entryDx=0;entryDy=0;endArrow=none;endFill=0;" parent="1" source="jkCZveZD26y1BfdMxYiz-48" target="jkCZveZD26y1BfdMxYiz-51" edge="1">
          <mxGeometry relative="1" as="geometry" />
        </mxCell>
        <mxCell id="jkCZveZD26y1BfdMxYiz-83" style="edgeStyle=orthogonalEdgeStyle;rounded=1;orthogonalLoop=1;jettySize=auto;html=1;exitX=1;exitY=0.5;exitDx=0;exitDy=0;entryX=0;entryY=0.5;entryDx=0;entryDy=0;endArrow=none;endFill=0;startArrow=open;dashed=1;startFill=0;" parent="1" source="uaVqYU7JOt9dKD4TP8RB-2" target="jkCZveZD26y1BfdMxYiz-70" edge="1">
          <mxGeometry relative="1" as="geometry" />
        </mxCell>
        <mxCell id="uaVqYU7JOt9dKD4TP8RB-4" value="&amp;lt;&amp;lt;include&amp;gt;&amp;gt;" style="edgeLabel;html=1;align=center;verticalAlign=middle;resizable=0;points=[];" vertex="1" connectable="0" parent="jkCZveZD26y1BfdMxYiz-83">
          <mxGeometry x="0.1" y="1" relative="1" as="geometry">
            <mxPoint y="-14" as="offset" />
          </mxGeometry>
        </mxCell>
        <mxCell id="jkCZveZD26y1BfdMxYiz-48" value="Spieler" style="shape=umlActor;verticalLabelPosition=bottom;verticalAlign=top;html=1;" parent="1" vertex="1">
          <mxGeometry x="40" y="458" width="30" height="60" as="geometry" />
        </mxCell>
        <mxCell id="jkCZveZD26y1BfdMxYiz-49" value="Spiel starten" style="ellipse;whiteSpace=wrap;html=1;" parent="1" vertex="1">
          <mxGeometry x="460" y="268.15" width="100" height="50" as="geometry" />
        </mxCell>
        <mxCell id="jkCZveZD26y1BfdMxYiz-50" value="&lt;div&gt;Spiel&lt;/div&gt;&lt;div&gt;spielen&lt;br&gt;&lt;/div&gt;" style="ellipse;whiteSpace=wrap;html=1;" parent="1" vertex="1">
          <mxGeometry x="460" y="528.15" width="100" height="50" as="geometry" />
        </mxCell>
        <mxCell id="jkCZveZD26y1BfdMxYiz-51" value="&lt;div&gt;Hauptmenü anzeigen&lt;/div&gt;" style="ellipse;whiteSpace=wrap;html=1;" parent="1" vertex="1">
          <mxGeometry x="270" y="268.15" width="100" height="50" as="geometry" />
        </mxCell>
        <mxCell id="jkCZveZD26y1BfdMxYiz-52" value="Türme darstellen" style="ellipse;whiteSpace=wrap;html=1;" parent="1" vertex="1">
          <mxGeometry x="250" y="348.15" width="100" height="50" as="geometry" />
        </mxCell>
        <mxCell id="jkCZveZD26y1BfdMxYiz-53" value="Spice darstellen" style="ellipse;whiteSpace=wrap;html=1;" parent="1" vertex="1">
          <mxGeometry x="240" y="418.15" width="100" height="50" as="geometry" />
        </mxCell>
        <mxCell id="jkCZveZD26y1BfdMxYiz-54" value="Lebenspunkte darstellen" style="ellipse;whiteSpace=wrap;html=1;" parent="1" vertex="1">
          <mxGeometry x="655" y="308.15" width="100" height="50" as="geometry" />
        </mxCell>
        <mxCell id="jkCZveZD26y1BfdMxYiz-55" value="Spiel darstellen" style="ellipse;whiteSpace=wrap;html=1;" parent="1" vertex="1">
          <mxGeometry x="460" y="398.15" width="100" height="50" as="geometry" />
        </mxCell>
        <mxCell id="jkCZveZD26y1BfdMxYiz-60" value="" style="endArrow=open;html=1;rounded=0;exitX=1;exitY=0.5;exitDx=0;exitDy=0;entryX=0;entryY=0.5;entryDx=0;entryDy=0;dashed=1;endFill=0;" parent="1" source="jkCZveZD26y1BfdMxYiz-51" target="jkCZveZD26y1BfdMxYiz-49" edge="1">
          <mxGeometry width="50" height="50" relative="1" as="geometry">
            <mxPoint x="620" y="318.15" as="sourcePoint" />
            <mxPoint x="670" y="268.15" as="targetPoint" />
          </mxGeometry>
        </mxCell>
        <mxCell id="jkCZveZD26y1BfdMxYiz-61" value="&amp;lt;&amp;lt;include&amp;gt;&amp;gt;" style="edgeLabel;html=1;align=center;verticalAlign=middle;resizable=0;points=[];" parent="jkCZveZD26y1BfdMxYiz-60" vertex="1" connectable="0">
          <mxGeometry x="0.3273" relative="1" as="geometry">
            <mxPoint x="-23" y="10" as="offset" />
          </mxGeometry>
        </mxCell>
        <mxCell id="jkCZveZD26y1BfdMxYiz-62" value="" style="endArrow=open;html=1;rounded=0;exitX=0.5;exitY=1;exitDx=0;exitDy=0;entryX=0.5;entryY=0;entryDx=0;entryDy=0;dashed=1;endFill=0;" parent="1" source="jkCZveZD26y1BfdMxYiz-49" target="jkCZveZD26y1BfdMxYiz-55" edge="1">
          <mxGeometry width="50" height="50" relative="1" as="geometry">
            <mxPoint x="360" y="298.15" as="sourcePoint" />
            <mxPoint x="470" y="298.15" as="targetPoint" />
          </mxGeometry>
        </mxCell>
        <mxCell id="jkCZveZD26y1BfdMxYiz-63" value="&amp;lt;&amp;lt;include&amp;gt;&amp;gt;" style="edgeLabel;html=1;align=center;verticalAlign=middle;resizable=0;points=[];" parent="jkCZveZD26y1BfdMxYiz-62" vertex="1" connectable="0">
          <mxGeometry x="0.3273" relative="1" as="geometry">
            <mxPoint y="-7" as="offset" />
          </mxGeometry>
        </mxCell>
        <mxCell id="jkCZveZD26y1BfdMxYiz-64" value="" style="endArrow=open;html=1;rounded=1;exitX=0;exitY=0.5;exitDx=0;exitDy=0;entryX=1;entryY=0.5;entryDx=0;entryDy=0;dashed=1;endFill=0;" parent="1" source="jkCZveZD26y1BfdMxYiz-55" target="jkCZveZD26y1BfdMxYiz-53" edge="1">
          <mxGeometry width="50" height="50" relative="1" as="geometry">
            <mxPoint x="460" y="428.15" as="sourcePoint" />
            <mxPoint x="350" y="428.15" as="targetPoint" />
            <Array as="points">
              <mxPoint x="460" y="443" />
            </Array>
          </mxGeometry>
        </mxCell>
        <mxCell id="jkCZveZD26y1BfdMxYiz-65" value="&amp;lt;&amp;lt;include&amp;gt;&amp;gt;" style="edgeLabel;html=1;align=center;verticalAlign=middle;resizable=0;points=[];" parent="jkCZveZD26y1BfdMxYiz-64" vertex="1" connectable="0">
          <mxGeometry x="0.3273" relative="1" as="geometry">
            <mxPoint x="13" y="15" as="offset" />
          </mxGeometry>
        </mxCell>
        <mxCell id="jkCZveZD26y1BfdMxYiz-66" value="" style="endArrow=open;html=1;rounded=1;exitX=0;exitY=0;exitDx=0;exitDy=0;entryX=1;entryY=0.5;entryDx=0;entryDy=0;dashed=1;endFill=0;" parent="1" source="jkCZveZD26y1BfdMxYiz-55" target="jkCZveZD26y1BfdMxYiz-52" edge="1">
          <mxGeometry width="50" height="50" relative="1" as="geometry">
            <mxPoint x="470" y="357.65" as="sourcePoint" />
            <mxPoint x="360" y="357.65" as="targetPoint" />
            <Array as="points">
              <mxPoint x="475" y="373" />
            </Array>
          </mxGeometry>
        </mxCell>
        <mxCell id="jkCZveZD26y1BfdMxYiz-67" value="&amp;lt;&amp;lt;include&amp;gt;&amp;gt;" style="edgeLabel;html=1;align=center;verticalAlign=middle;resizable=0;points=[];" parent="jkCZveZD26y1BfdMxYiz-66" vertex="1" connectable="0">
          <mxGeometry x="0.3273" relative="1" as="geometry">
            <mxPoint x="18" y="10" as="offset" />
          </mxGeometry>
        </mxCell>
        <mxCell id="jkCZveZD26y1BfdMxYiz-70" value="&lt;div&gt;Spiel&lt;/div&gt;&lt;div&gt;pausieren&lt;/div&gt;" style="ellipse;whiteSpace=wrap;html=1;" parent="1" vertex="1">
          <mxGeometry x="330" y="528.15" width="100" height="50" as="geometry" />
        </mxCell>
        <mxCell id="jkCZveZD26y1BfdMxYiz-71" value="&lt;div&gt;Sieg/Niederlage&lt;/div&gt;&lt;div&gt;auswerten&lt;br&gt;&lt;/div&gt;" style="ellipse;whiteSpace=wrap;html=1;" parent="1" vertex="1">
          <mxGeometry x="820" y="538.15" width="100" height="50" as="geometry" />
        </mxCell>
        <mxCell id="jkCZveZD26y1BfdMxYiz-72" value="" style="endArrow=open;html=1;rounded=0;exitX=0.5;exitY=1;exitDx=0;exitDy=0;entryX=0.5;entryY=0;entryDx=0;entryDy=0;dashed=1;endFill=0;" parent="1" source="jkCZveZD26y1BfdMxYiz-55" target="jkCZveZD26y1BfdMxYiz-50" edge="1">
          <mxGeometry width="50" height="50" relative="1" as="geometry">
            <mxPoint x="590" y="448.15" as="sourcePoint" />
            <mxPoint x="590" y="528.15" as="targetPoint" />
          </mxGeometry>
        </mxCell>
        <mxCell id="jkCZveZD26y1BfdMxYiz-73" value="&amp;lt;&amp;lt;include&amp;gt;&amp;gt;" style="edgeLabel;html=1;align=center;verticalAlign=middle;resizable=0;points=[];" parent="jkCZveZD26y1BfdMxYiz-72" vertex="1" connectable="0">
          <mxGeometry x="0.3273" relative="1" as="geometry">
            <mxPoint y="-7" as="offset" />
          </mxGeometry>
        </mxCell>
        <mxCell id="jkCZveZD26y1BfdMxYiz-74" value="" style="endArrow=open;html=1;rounded=0;exitX=1;exitY=0.5;exitDx=0;exitDy=0;entryX=0;entryY=0.5;entryDx=0;entryDy=0;dashed=1;endFill=0;" parent="1" source="jkCZveZD26y1BfdMxYiz-70" target="jkCZveZD26y1BfdMxYiz-50" edge="1">
          <mxGeometry width="50" height="50" relative="1" as="geometry">
            <mxPoint x="370" y="538.15" as="sourcePoint" />
            <mxPoint x="494.64466094067257" y="570.4723304703363" as="targetPoint" />
          </mxGeometry>
        </mxCell>
        <mxCell id="jkCZveZD26y1BfdMxYiz-75" value="&amp;lt;&amp;lt;extend&amp;gt;&amp;gt;" style="edgeLabel;html=1;align=center;verticalAlign=middle;resizable=0;points=[];" parent="jkCZveZD26y1BfdMxYiz-74" vertex="1" connectable="0">
          <mxGeometry x="0.3273" relative="1" as="geometry">
            <mxPoint y="-25" as="offset" />
          </mxGeometry>
        </mxCell>
        <mxCell id="jkCZveZD26y1BfdMxYiz-76" value="&lt;div&gt;Spiel&lt;/div&gt;&lt;div&gt;aufgeben&lt;br&gt;&lt;/div&gt;" style="ellipse;whiteSpace=wrap;html=1;" parent="1" vertex="1">
          <mxGeometry x="120" y="650" width="100" height="50" as="geometry" />
        </mxCell>
        <mxCell id="jkCZveZD26y1BfdMxYiz-77" value="&lt;div&gt;Spiel&lt;/div&gt;&lt;div&gt;fortsetzen&lt;br&gt;&lt;/div&gt;" style="ellipse;whiteSpace=wrap;html=1;" parent="1" vertex="1">
          <mxGeometry x="190" y="708.15" width="100" height="50" as="geometry" />
        </mxCell>
        <mxCell id="jkCZveZD26y1BfdMxYiz-78" value="" style="endArrow=open;html=1;rounded=1;dashed=1;endFill=0;exitX=0.5;exitY=0;exitDx=0;exitDy=0;entryX=0;entryY=1;entryDx=0;entryDy=0;" parent="1" source="jkCZveZD26y1BfdMxYiz-76" target="uaVqYU7JOt9dKD4TP8RB-2" edge="1">
          <mxGeometry width="50" height="50" relative="1" as="geometry">
            <mxPoint x="190" y="618" as="sourcePoint" />
            <mxPoint x="200" y="560" as="targetPoint" />
            <Array as="points">
              <mxPoint x="170" y="571" />
            </Array>
          </mxGeometry>
        </mxCell>
        <mxCell id="jkCZveZD26y1BfdMxYiz-79" value="&amp;lt;&amp;lt;extend&amp;gt;&amp;gt;" style="edgeLabel;html=1;align=center;verticalAlign=middle;resizable=0;points=[];" parent="jkCZveZD26y1BfdMxYiz-78" vertex="1" connectable="0">
          <mxGeometry x="0.3273" relative="1" as="geometry">
            <mxPoint x="-19" y="29" as="offset" />
          </mxGeometry>
        </mxCell>
        <mxCell id="jkCZveZD26y1BfdMxYiz-80" value="" style="endArrow=open;html=1;rounded=0;exitX=0.5;exitY=0;exitDx=0;exitDy=0;entryX=0.5;entryY=1;entryDx=0;entryDy=0;dashed=1;endFill=0;" parent="1" source="jkCZveZD26y1BfdMxYiz-77" target="uaVqYU7JOt9dKD4TP8RB-2" edge="1">
          <mxGeometry width="50" height="50" relative="1" as="geometry">
            <mxPoint x="370" y="573.15" as="sourcePoint" />
            <mxPoint x="480" y="573.15" as="targetPoint" />
            <Array as="points" />
          </mxGeometry>
        </mxCell>
        <mxCell id="jkCZveZD26y1BfdMxYiz-81" value="&amp;lt;&amp;lt;extend&amp;gt;&amp;gt;" style="edgeLabel;html=1;align=center;verticalAlign=middle;resizable=0;points=[];" parent="jkCZveZD26y1BfdMxYiz-80" vertex="1" connectable="0">
          <mxGeometry x="0.3273" relative="1" as="geometry">
            <mxPoint x="3" y="10" as="offset" />
          </mxGeometry>
        </mxCell>
        <mxCell id="jkCZveZD26y1BfdMxYiz-84" value="&lt;div&gt;Spielinformation&lt;/div&gt;&lt;div&gt;darstellen&lt;br&gt;&lt;/div&gt;" style="ellipse;whiteSpace=wrap;html=1;" parent="1" vertex="1">
          <mxGeometry x="330" y="608.15" width="100" height="50" as="geometry" />
        </mxCell>
        <mxCell id="jkCZveZD26y1BfdMxYiz-85" value="" style="endArrow=open;html=1;rounded=1;exitX=1;exitY=1;exitDx=0;exitDy=0;dashed=1;endFill=0;" parent="1" source="uaVqYU7JOt9dKD4TP8RB-2" edge="1">
          <mxGeometry width="50" height="50" relative="1" as="geometry">
            <mxPoint x="500" y="608.15" as="sourcePoint" />
            <mxPoint x="330" y="633" as="targetPoint" />
            <Array as="points">
              <mxPoint x="280" y="633" />
            </Array>
          </mxGeometry>
        </mxCell>
        <mxCell id="jkCZveZD26y1BfdMxYiz-86" value="&amp;lt;&amp;lt;include&amp;gt;&amp;gt;" style="edgeLabel;html=1;align=center;verticalAlign=middle;resizable=0;points=[];" parent="jkCZveZD26y1BfdMxYiz-85" vertex="1" connectable="0">
          <mxGeometry x="0.3273" relative="1" as="geometry">
            <mxPoint x="17" y="-13" as="offset" />
          </mxGeometry>
        </mxCell>
        <mxCell id="jkCZveZD26y1BfdMxYiz-87" value="" style="endArrow=open;html=1;rounded=0;exitX=0.97;exitY=0.66;exitDx=0;exitDy=0;entryX=0;entryY=0.5;entryDx=0;entryDy=0;dashed=1;endFill=0;exitPerimeter=0;" parent="1" source="jkCZveZD26y1BfdMxYiz-50" target="jkCZveZD26y1BfdMxYiz-71" edge="1">
          <mxGeometry width="50" height="50" relative="1" as="geometry">
            <mxPoint x="590" y="588.15" as="sourcePoint" />
            <mxPoint x="590" y="668.15" as="targetPoint" />
          </mxGeometry>
        </mxCell>
        <mxCell id="jkCZveZD26y1BfdMxYiz-88" value="&amp;lt;&amp;lt;include&amp;gt;&amp;gt;" style="edgeLabel;html=1;align=center;verticalAlign=middle;resizable=0;points=[];" parent="jkCZveZD26y1BfdMxYiz-87" vertex="1" connectable="0">
          <mxGeometry x="0.3273" relative="1" as="geometry">
            <mxPoint y="-7" as="offset" />
          </mxGeometry>
        </mxCell>
        <mxCell id="jkCZveZD26y1BfdMxYiz-89" value="Highscore berechnen" style="ellipse;whiteSpace=wrap;html=1;" parent="1" vertex="1">
          <mxGeometry x="820" y="308.15" width="100" height="50" as="geometry" />
        </mxCell>
        <mxCell id="jkCZveZD26y1BfdMxYiz-92" value="" style="endArrow=open;html=1;rounded=0;exitX=0.5;exitY=0;exitDx=0;exitDy=0;entryX=0.5;entryY=1;entryDx=0;entryDy=0;dashed=1;endFill=0;" parent="1" source="jkCZveZD26y1BfdMxYiz-71" target="jkCZveZD26y1BfdMxYiz-89" edge="1">
          <mxGeometry width="50" height="50" relative="1" as="geometry">
            <mxPoint x="700" y="423.15" as="sourcePoint" />
            <mxPoint x="580" y="443.15" as="targetPoint" />
          </mxGeometry>
        </mxCell>
        <mxCell id="jkCZveZD26y1BfdMxYiz-93" value="&amp;lt;&amp;lt;include&amp;gt;&amp;gt;" style="edgeLabel;html=1;align=center;verticalAlign=middle;resizable=0;points=[];" parent="jkCZveZD26y1BfdMxYiz-92" vertex="1" connectable="0">
          <mxGeometry x="0.3273" relative="1" as="geometry">
            <mxPoint x="27" y="7" as="offset" />
          </mxGeometry>
        </mxCell>
        <mxCell id="jkCZveZD26y1BfdMxYiz-94" value="Feindeinheiten darstellen" style="ellipse;whiteSpace=wrap;html=1;" parent="1" vertex="1">
          <mxGeometry x="655" y="398.15" width="100" height="50" as="geometry" />
        </mxCell>
        <mxCell id="jkCZveZD26y1BfdMxYiz-102" style="edgeStyle=orthogonalEdgeStyle;rounded=0;orthogonalLoop=1;jettySize=auto;html=1;exitX=1;exitY=0.5;exitDx=0;exitDy=0;entryX=0;entryY=0.3333333333333333;entryDx=0;entryDy=0;entryPerimeter=0;endArrow=none;endFill=0;" parent="1" source="jkCZveZD26y1BfdMxYiz-100" target="jkCZveZD26y1BfdMxYiz-46" edge="1">
          <mxGeometry relative="1" as="geometry">
            <Array as="points">
              <mxPoint x="1050" y="133" />
            </Array>
          </mxGeometry>
        </mxCell>
        <mxCell id="jkCZveZD26y1BfdMxYiz-100" value="Highscore übermitteln" style="ellipse;whiteSpace=wrap;html=1;" parent="1" vertex="1">
          <mxGeometry x="820" y="108" width="100" height="50" as="geometry" />
        </mxCell>
        <mxCell id="jkCZveZD26y1BfdMxYiz-105" value="" style="endArrow=none;html=1;rounded=0;" parent="1" edge="1">
          <mxGeometry width="50" height="50" relative="1" as="geometry">
            <mxPoint x="120" y="760" as="sourcePoint" />
            <mxPoint x="120" y="40" as="targetPoint" />
          </mxGeometry>
        </mxCell>
        <mxCell id="jkCZveZD26y1BfdMxYiz-108" value="" style="endArrow=none;html=1;rounded=0;" parent="1" edge="1">
          <mxGeometry width="50" height="50" relative="1" as="geometry">
            <mxPoint x="990" y="760" as="sourcePoint" />
            <mxPoint x="120" y="760" as="targetPoint" />
          </mxGeometry>
        </mxCell>
        <mxCell id="jkCZveZD26y1BfdMxYiz-109" value="" style="endArrow=none;html=1;rounded=0;" parent="1" edge="1">
          <mxGeometry width="50" height="50" relative="1" as="geometry">
            <mxPoint x="990" y="40" as="sourcePoint" />
            <mxPoint x="120" y="40" as="targetPoint" />
          </mxGeometry>
        </mxCell>
        <mxCell id="jkCZveZD26y1BfdMxYiz-110" value="" style="endArrow=none;html=1;rounded=0;" parent="1" edge="1">
          <mxGeometry width="50" height="50" relative="1" as="geometry">
            <mxPoint x="990" y="760" as="sourcePoint" />
            <mxPoint x="990" y="40" as="targetPoint" />
          </mxGeometry>
        </mxCell>
        <mxCell id="jkCZveZD26y1BfdMxYiz-111" value="Dune TD" style="text;align=center;fontStyle=1;verticalAlign=middle;spacingLeft=3;spacingRight=3;strokeColor=none;rotatable=0;points=[[0,0.5],[1,0.5]];portConstraint=eastwest;" parent="1" vertex="1">
          <mxGeometry x="470" y="50" width="80" height="26" as="geometry" />
        </mxCell>
        <mxCell id="ZUByXBqeYzaR9BXKlt6s-1" value="" style="endArrow=open;html=1;rounded=0;exitX=0;exitY=0.5;exitDx=0;exitDy=0;dashed=1;endFill=0;entryX=1;entryY=0.5;entryDx=0;entryDy=0;" parent="1" edge="1">
          <mxGeometry width="50" height="50" relative="1" as="geometry">
            <mxPoint x="560" y="422.6500000000001" as="sourcePoint" />
            <mxPoint x="655" y="422.6500000000001" as="targetPoint" />
          </mxGeometry>
        </mxCell>
        <mxCell id="ZUByXBqeYzaR9BXKlt6s-2" value="&amp;lt;&amp;lt;include&amp;gt;&amp;gt;" style="edgeLabel;html=1;align=center;verticalAlign=middle;resizable=0;points=[];" parent="ZUByXBqeYzaR9BXKlt6s-1" vertex="1" connectable="0">
          <mxGeometry x="0.3273" relative="1" as="geometry">
            <mxPoint x="-13" y="21" as="offset" />
          </mxGeometry>
        </mxCell>
        <mxCell id="ZUByXBqeYzaR9BXKlt6s-3" value="" style="endArrow=open;html=1;rounded=1;exitX=1;exitY=0;exitDx=0;exitDy=0;dashed=1;endFill=0;entryX=0;entryY=0.5;entryDx=0;entryDy=0;orthogonal=0;" parent="1" source="jkCZveZD26y1BfdMxYiz-55" target="jkCZveZD26y1BfdMxYiz-54" edge="1">
          <mxGeometry width="50" height="50" relative="1" as="geometry">
            <mxPoint x="550.3553390593274" y="409.3823304703364" as="sourcePoint" />
            <mxPoint x="660" y="337.0600000000001" as="targetPoint" />
            <Array as="points">
              <mxPoint x="545" y="333" />
            </Array>
          </mxGeometry>
        </mxCell>
        <mxCell id="ZUByXBqeYzaR9BXKlt6s-4" value="&amp;lt;&amp;lt;include&amp;gt;&amp;gt;" style="edgeLabel;html=1;align=center;verticalAlign=middle;resizable=0;points=[];" parent="ZUByXBqeYzaR9BXKlt6s-3" vertex="1" connectable="0">
          <mxGeometry x="0.3273" relative="1" as="geometry">
            <mxPoint x="6" y="15" as="offset" />
          </mxGeometry>
        </mxCell>
        <mxCell id="CN0FNHjZ1NhV2qqpaX4V-1" value="" style="endArrow=open;html=1;rounded=0;dashed=1;endFill=0;exitX=0.5;exitY=0;exitDx=0;exitDy=0;entryX=0.5;entryY=1;entryDx=0;entryDy=0;" parent="1" source="jkCZveZD26y1BfdMxYiz-89" target="jkCZveZD26y1BfdMxYiz-100" edge="1">
          <mxGeometry width="50" height="50" relative="1" as="geometry">
            <mxPoint x="870" y="280" as="sourcePoint" />
            <mxPoint x="870" y="190" as="targetPoint" />
          </mxGeometry>
        </mxCell>
        <mxCell id="CN0FNHjZ1NhV2qqpaX4V-2" value="&amp;lt;&amp;lt;include&amp;gt;&amp;gt;" style="edgeLabel;html=1;align=center;verticalAlign=middle;resizable=0;points=[];" parent="CN0FNHjZ1NhV2qqpaX4V-1" vertex="1" connectable="0">
          <mxGeometry x="0.3273" relative="1" as="geometry">
            <mxPoint x="27" y="7" as="offset" />
          </mxGeometry>
        </mxCell>
        <mxCell id="ZL30_GsrsxJgEsHCr-rT-1" value="" style="endArrow=open;html=1;rounded=0;exitX=0.5;exitY=0;exitDx=0;exitDy=0;entryX=0.5;entryY=1;entryDx=0;entryDy=0;dashed=1;endFill=0;" parent="1" edge="1">
          <mxGeometry width="50" height="50" relative="1" as="geometry">
            <mxPoint x="509.40999999999974" y="699.9999999999998" as="sourcePoint" />
            <mxPoint x="509.40999999999974" y="578.1500000000001" as="targetPoint" />
          </mxGeometry>
        </mxCell>
        <mxCell id="ZL30_GsrsxJgEsHCr-rT-2" value="&amp;lt;&amp;lt;extend&amp;gt;&amp;gt;" style="edgeLabel;html=1;align=center;verticalAlign=middle;resizable=0;points=[];" parent="ZL30_GsrsxJgEsHCr-rT-1" vertex="1" connectable="0">
          <mxGeometry x="0.3273" relative="1" as="geometry">
            <mxPoint x="3" y="10" as="offset" />
          </mxGeometry>
        </mxCell>
        <mxCell id="ZL30_GsrsxJgEsHCr-rT-3" value="&lt;div&gt;Klopfer&lt;/div&gt;" style="ellipse;whiteSpace=wrap;html=1;" parent="1" vertex="1">
          <mxGeometry x="460" y="658.15" width="100" height="50" as="geometry" />
        </mxCell>
        <mxCell id="ZL30_GsrsxJgEsHCr-rT-4" value="&lt;div&gt;Sandwurm&lt;/div&gt;" style="ellipse;whiteSpace=wrap;html=1;" parent="1" vertex="1">
          <mxGeometry x="620" y="658.15" width="100" height="50" as="geometry" />
        </mxCell>
        <mxCell id="ZL30_GsrsxJgEsHCr-rT-5" value="" style="endArrow=open;html=1;rounded=0;exitX=1;exitY=0.5;exitDx=0;exitDy=0;dashed=1;endFill=0;" parent="1" source="ZL30_GsrsxJgEsHCr-rT-3" edge="1">
          <mxGeometry width="50" height="50" relative="1" as="geometry">
            <mxPoint x="570" y="682.5600000000001" as="sourcePoint" />
            <mxPoint x="620" y="683" as="targetPoint" />
          </mxGeometry>
        </mxCell>
        <mxCell id="ZL30_GsrsxJgEsHCr-rT-6" value="&amp;lt;&amp;lt;include&amp;gt;&amp;gt;" style="edgeLabel;html=1;align=center;verticalAlign=middle;resizable=0;points=[];" parent="ZL30_GsrsxJgEsHCr-rT-5" vertex="1" connectable="0">
          <mxGeometry x="0.3273" relative="1" as="geometry">
            <mxPoint x="-13" y="21" as="offset" />
          </mxGeometry>
        </mxCell>
        <mxCell id="uaVqYU7JOt9dKD4TP8RB-2" value="&lt;div&gt;Pausemenü&lt;/div&gt;&lt;div&gt;darstellen&lt;/div&gt;" style="ellipse;whiteSpace=wrap;html=1;" vertex="1" parent="1">
          <mxGeometry x="190" y="528.15" width="100" height="50" as="geometry" />
        </mxCell>
        <mxCell id="uaVqYU7JOt9dKD4TP8RB-3" value="" style="edgeStyle=orthogonalEdgeStyle;rounded=1;orthogonalLoop=1;jettySize=auto;html=1;exitX=1;exitY=0.3333333333333333;exitDx=0;exitDy=0;exitPerimeter=0;entryX=0;entryY=0.5;entryDx=0;entryDy=0;endArrow=none;endFill=0;" edge="1" parent="1" source="jkCZveZD26y1BfdMxYiz-48" target="uaVqYU7JOt9dKD4TP8RB-2">
          <mxGeometry relative="1" as="geometry">
            <mxPoint x="70" y="478" as="sourcePoint" />
            <mxPoint x="310" y="553.1500000000001" as="targetPoint" />
          </mxGeometry>
        </mxCell>
      </root>
    </mxGraphModel>
  </diagram>
</mxfile>
